<svg version="1.2" baseProfile="tiny" xmlns="http://www.w3.org/2000/svg" width="220" height="42" viewBox="0 0 220 42"><path fill="#333" d="M5.8 41.6H0v-28h16.1v4.9H5.8v7.2h9.5v4.8H5.8v11.1zM21.5 41.6v-28h5.9v28h-5.9zM40.5 30.9v10.7h-5.9v-28h8.2c3.8 0 6.6.7 8.4 2.1 1.8 1.4 2.7 3.5 2.7 6.3 0 1.6-.5 3.1-1.4 4.4-.9 1.3-2.2 2.3-3.8 3 4.2 6.3 7 10.4 8.2 12.2h-6.6l-6.7-10.7h-3.1zm0-4.9h1.9c1.9 0 3.3-.3 4.2-.9.9-.6 1.3-1.6 1.3-2.9 0-1.3-.5-2.3-1.4-2.8-.9-.6-2.3-.8-4.2-.8h-1.8V26zM76.5 41.6H60.4v-28h16.1v4.9H66.3v6.1h9.5v4.9h-9.5v7.2h10.2v4.9z"/><path fill="#333" d="M109.7 41.6h-6.8l-3.8-14.7c-.1-.5-.4-1.6-.7-3.2-.3-1.6-.5-2.7-.6-3.3-.1.7-.3 1.8-.6 3.3-.3 1.5-.5 2.6-.7 3.3l-3.8 14.7H86l-7.1-28h5.8L88.3 29c.6 2.8 1.1 5.3 1.4 7.3.1-.7.3-1.9.5-3.4.3-1.5.5-2.7.8-3.6l4-15.7h5.6l4.1 15.7c.2.7.4 1.8.7 3.2.3 1.4.5 2.7.6 3.7.1-1 .3-2.2.6-3.7s.5-2.7.8-3.6l3.6-15.3h5.8l-7.1 28zM145.7 27.6c0 4.6-1.1 8.2-3.4 10.7s-5.6 3.7-9.9 3.7-7.6-1.2-9.9-3.7c-2.3-2.5-3.4-6.1-3.4-10.7 0-4.7 1.2-8.2 3.5-10.7s5.6-3.7 9.9-3.7c4.3 0 7.6 1.2 9.9 3.7 2.2 2.5 3.3 6 3.3 10.7zm-20.4 0c0 3.1.6 5.5 1.8 7.1 1.2 1.6 3 2.4 5.3 2.4 4.7 0 7.1-3.1 7.1-9.4 0-6.3-2.4-9.5-7.1-9.5-2.4 0-4.1.8-5.3 2.4-1.2 1.5-1.8 3.8-1.8 7zM157.5 30.9v10.7h-5.9v-28h8.2c3.8 0 6.6.7 8.4 2.1 1.8 1.4 2.7 3.5 2.7 6.3 0 1.6-.5 3.1-1.4 4.4-.9 1.3-2.2 2.3-3.8 3 4.2 6.3 7 10.4 8.2 12.2h-6.6l-6.7-10.7h-3.1zm0-4.9h1.9c1.9 0 3.3-.3 4.2-.9.9-.6 1.3-1.6 1.3-2.9 0-1.3-.5-2.3-1.4-2.8-.9-.6-2.3-.8-4.2-.8h-1.8V26zM199.9 41.6h-6.7l-7.3-11.8-2.5 1.8v10h-5.9v-28h5.9v12.8l2.3-3.3 7.6-9.5h6.6L190.1 26l9.8 15.6zM220 33.8c0 2.5-.9 4.5-2.7 6-1.8 1.5-4.4 2.2-7.6 2.2-3 0-5.6-.6-7.9-1.7v-5.5c1.9.8 3.5 1.4 4.8 1.8 1.3.3 2.5.5 3.6.5 1.3 0 2.3-.2 3-.7.7-.5 1-1.2 1-2.2 0-.5-.2-1-.5-1.5-.3-.4-.8-.8-1.4-1.2-.6-.4-1.8-1-3.6-1.9-1.7-.8-3-1.6-3.8-2.3-.9-.7-1.5-1.6-2-2.6s-.8-2.1-.8-3.4c0-2.5.8-4.4 2.5-5.8 1.7-1.4 4-2.1 7-2.1 1.5 0 2.8.2 4.2.5 1.3.3 2.7.8 4.1 1.5L218 20c-1.5-.6-2.7-1-3.7-1.3-1-.2-1.9-.4-2.9-.4-1.1 0-2 .3-2.6.8-.6.5-.9 1.2-.9 2 0 .5.1 1 .4 1.4.2.4.6.8 1.2 1.1.5.4 1.8 1 3.8 2 2.6 1.3 4.4 2.5 5.4 3.8.8 1.1 1.3 2.6 1.3 4.4z"/><g fill="#333"><path d="M0 0c.4 0 .8.1 1.2.2.4.1.7.3 1 .6.3.3.5.6.7 1 .2.4.3.8.3 1.3v6H1.6V3c0-.2 0-.5-.1-.6-.1-.2-.2-.3-.3-.5-.2-.1-.4-.2-.6-.2-.2-.1-.4-.1-.6-.1V0zM12.3 6.4c0 .9-.3 1.5-.8 2-.4.4-1.1.6-2 .6H4.8V7.4h4.9c.3 0 .5-.1.7-.3.2-.2.3-.5.3-.8 0-.3-.1-.5-.3-.7-.1-.2-.4-.3-.6-.3H7.2c-.5 0-1-.1-1.3-.2-.4-.2-.7-.4-.9-.7-.2-.2-.4-.5-.5-.8-.1-.3-.1-.6-.1-.9 0-.4.1-.7.2-1 0-.4.2-.7.4-.9.2-.2.5-.4.9-.6.4-.1.8-.2 1.3-.2h4.5v1.6H7c-.1 0-.3 0-.4.1-.1 0-.2.1-.3.2-.1.1-.2.2-.2.3-.1.2-.1.3-.1.4 0 .3.1.5.3.8.2.2.4.3.7.3h2.5c.9 0 1.6.2 2.1.7.5.4.7 1.1.7 2zM17 9h-1.6V1.6h-2.2V0h5.9v1.6H17V9zM28.1 9C25.3 9 24 7.5 24 4.5S25.4 0 28.1 0h3.3v1.6h-3.7c-.7 0-1.3.2-1.6.7-.4.5-.5 1.2-.5 2.2 0 1.9.7 2.9 2.1 2.9h1.9c.1 0 .3 0 .4-.1.1-.1.2-.1.3-.2.1-.1.2-.2.2-.3.1-.1.1-.3.1-.4 0-.3-.1-.5-.3-.7-.2-.2-.4-.3-.7-.3h-1.4V3.7h1.5c.4 0 .7.1 1 .2.3.1.6.3.8.6.2.2.4.5.5.9.1.3.2.7.2 1.1 0 .3-.1.7-.2 1-.1.3-.3.6-.6.8-.2.2-.5.4-.8.6-.3.1-.7.1-1 .1h-1.5zM39.8 9l-2.5-7.2c-.1-.2-.2-.2-.3-.2-.2 0-.3.1-.3.2L34 9h-1.7l2.8-7.9c.1-.4.4-.7.7-.9.3-.1.7-.2 1.1-.2.4 0 .8.1 1.1.3.3.2.5.5.7.9L41.5 9h-1.7zM46.4 9c-.7 0-1.2-.1-1.7-.3-.5-.2-.9-.4-1.3-.8-.3-.3-.6-.8-.8-1.2-.2-.5-.2-1-.2-1.6V0H44v5.1c0 .7.2 1.3.6 1.7.4.4 1 .6 1.7.6h2.8V9h-2.7zM57.4 9l-2.5-7.2c-.1-.2-.2-.2-.3-.2-.2 0-.3.1-.3.2L51.6 9h-1.7l2.8-7.9c.1-.4.4-.7.7-.9.3-.1.7-.2 1.1-.2.4 0 .8.1 1.1.3.3.2.5.5.7.9L59 9h-1.6zM67.8 9h-1.9l-2.2-3.7L61.5 9h-1.9l2.9-4.6L59.6 0h1.9l2.2 3.6L65.9 0h1.9l-2.9 4.4L67.8 9zM71.6 5l-3.3-5h1.9l2.2 3.6L74.7 0h1.9l-3.3 4.9V9h-1.6V5z"/></g></svg>