<?xml version="1.0" encoding="utf-8"?>
<!-- Generator: Adobe Illustrator 22.0.1, SVG Export Plug-In . SVG Version: 6.00 Build 0)  -->
<svg version="1.1" id="Layer_1" xmlns="http://www.w3.org/2000/svg" xmlns:xlink="http://www.w3.org/1999/xlink" x="0px" y="0px"
	 width="280px" height="96px" viewBox="0 0 280 96" style="enable-background:new 0 0 280 96;" xml:space="preserve">
<style type="text/css">
	.st0{fill:#333333;}
</style>
<g>
	<path class="st0" d="M276,4v88H4V4 M280,0H0v96h280V0z"/>
	<path class="st0" d="M35.2,51.2c0,3.8-1.8,5.8-4.6,5.8c-2.6,0-4.4-1.4-6.4-3.8l-7.4,7c3,4,7.4,7,14.4,7c4.8,0,8.6-1.4,11.4-4.2
		c2.8-2.8,4-6.4,4-11.6V25.2H35.2C35.2,25.2,35.2,51.2,35.2,51.2z M65.8,33.8c-9.4,0-16,7.4-16,16.6v0.2c0,9.8,7,16.6,17,16.6
		c6.4,0,10.8-2.6,13.8-6.4l-6.2-5.2c-2.2,2.2-4.4,3.2-7,3.2c-3.4,0-6-1.8-6.8-5.2H82v-2.2C81.8,41.8,76.8,33.8,65.8,33.8z
		 M60.4,47.8C61,44.2,63,42,66,42s5.2,2.2,5.6,5.8C71.6,47.8,60.4,47.8,60.4,47.8z M85,43.4h14.2L84.6,59v7.4H114v-8.8H99.2
		L114,41.8v-7.2H85V43.4z M165.2,39.2c0-4.2-1.2-7.4-3.6-9.8c-2.8-2.8-7.2-4.4-13.4-4.4h-19.6v41.2H140V54h5l8.4,12.4h13.2l-10-14.4
		C161.8,49.8,165.2,45.6,165.2,39.2z M153.8,40c0,3-2.2,4.8-6.2,4.8H140v-10h7.6C151.4,35,153.8,36.6,153.8,40z M218.4,46.2
		c-3.4-1-5.2-1.6-5.2-2.8v-0.2c0-1,0.8-1.6,2.6-1.6c2.6,0,6.2,1.2,9.4,3l3.8-7c-3.6-2.4-8.4-3.8-13.2-3.8c-7.4,0-12.8,3.8-12.8,10.6
		v0.2c0,6.4,5,8.4,11.4,10.2c3.4,1,5.2,1.4,5.2,2.8v0.2c0,1.2-1,1.8-2.8,1.8c-3.4,0-7.2-1.2-11-3.6l-4.2,6.8c4.4,3.2,9.6,4.8,15,4.8
		c7.8,0,13-3.6,13-10.6v-0.2C229.6,50.2,224.6,48,218.4,46.2z M263.4,51.2c0-9.4-5-17.4-16-17.4c-9.4,0-16,7.4-16,16.6v0.2
		c0,9.8,7,16.6,17,16.6c6.4,0,10.8-2.6,13.8-6.4l-6.2-5.2c-2.2,2.2-4.4,3.2-7,3.2c-3.4,0-6-1.8-6.8-5.2h21.4
		C263.4,52.8,263.4,52,263.4,51.2L263.4,51.2z M241.8,47.8c0.6-3.6,2.6-5.8,5.6-5.8s5.2,2.2,5.6,5.8C253,47.8,241.8,47.8,241.8,47.8
		z M186.8,57.4c0.2-0.4,0.4-1,0.4-1.6s0.2-1.2,0-1.6l-3,1.2c-0.6,0.2-1,0.4-1.6,0.6l-0.2,0.2c0,0,0,0.2,0.2,0.4
		c0,0.2,0.2,0.4,0.4,0.6c0.4-0.4,1-0.6,1.6-0.8s1.2-0.4,1.8-0.4c0,0-0.2,0-0.2,0.2h0.4c0.2,0.2,0,0.4-0.2,0.4h0.2c0,0-0.2,0-0.2,0.2
		h0.2l-0.2,0.2v0.2h-0.2c-0.2,0.2-0.4,0.2-0.6,0.4c-0.4,0.2-1,0.2-1.2,0.6c0.2,0.2,0.6,0.2,0.8,0.4h1c0.4,0,0.6-0.2,0.8-0.4
		s0.4-0.4,0.6-0.8C187.2,57.2,187,57.4,186.8,57.4z M181.2,50.4c-0.4-0.4-0.8-0.4-1.2-0.6l-1.2-0.6c-0.8-0.2-1.8-0.4-2.8-0.6
		c-1-0.2-1.8,0-2.8,0.2c-0.2,0-0.4,0.2-0.6,0.2c-0.2,0-0.4,0.2-0.6,0.4c-0.2,0.2-0.6,0.4-0.6,0.8c-0.2,0.4-0.2,0.8-0.2,1v0.6
		c0,0.2,0.2,0.4,0.4,0.4c0.4,0.2,0.6,0.6,1,0.8l1.2,0.6c0.2,0,0.4,0.2,0.6,0.2c0.2,0,0.4,0.2,0.6,0c0.2,0,0.4-0.2,0.4-0.4l0.4-0.4
		c0.6-0.6,1.4-1,2.2-1.2c0.2,0,1.2-0.4,1.2,0c0,0.2-0.2,0.2-0.2,0.4c-0.2,0-0.4,0.2-0.6,0.2c-0.8,0.4-1.8,0.8-2.4,1.6
		c1.2,0.2,2.4,0,3.6-0.2v0.4c0,0.2-0.2,0.4-0.4,0.4c-0.4,0.2-0.6,0.4-1,0.4h-1.4c-0.4,0-1,0-1.4-0.2h-0.6c-0.2,0-0.2,0.2-0.4,0.4
		l-0.6,1.2c-0.2,0.8-0.4,1.8-0.2,2.6c0.2,0.6,0.8,1.4,1.6,1.4s1.6-0.2,2.4-0.8c0.8-0.4,1.2-1.2,1.6-1.8l0.6-1.2
		c0-0.2,0.2-0.4,0.4-0.6c0.2-0.2,0.2-0.4,0.2-0.6c-0.2-0.6-0.2-1-0.2-1.4v-2.6C181,51.4,181,50.8,181.2,50.4z"/>
	<path class="st0" d="M183.6,34.6c-10,0-17.2,7.4-17.2,16.4v0.2c0,8.8,7.2,16.2,17.2,16.2S201,60,201,51v-0.2
		C200.8,41.8,193.6,34.6,183.6,34.6z M183.6,43.2c0.2-1,0.4-1.8,1-2.4c0.6-0.8,1.4-1.4,2.2-2c0.4,0.2,0,0.8-0.2,1l-1,1
		c-0.2,0.4-0.6,0.8-0.8,1.2s-0.2,0.8-0.4,1.2c0,0.2-0.2,0.4-0.2,0.6c0,0.2,0,0.4-0.2,0.4s-0.2,0-0.4-0.2
		C183.6,44,183.6,43.2,183.6,43.2z M184.4,48.6c0.4,0,0.8-0.2,1,0c0.2,0,0.4,0.4,0.2,0.6c-0.2,0.2-0.4,0.2-0.6,0.2
		c-0.2,0-0.2,0.2-0.4,0.4c-0.4,0.2-0.6,0.4-1,0.6c-0.4,0.2-0.6,0.2-1,0c-0.2-0.2-0.4-0.4-0.4-0.8C183,49,183.6,48.8,184.4,48.6z
		 M182,49.2c-0.4,0.2-0.6-0.6-0.6-0.8c0.2,0,0.2-0.2,0.2-0.4s0.2-0.4,0.4-0.4c0.4-0.4,0.8-0.6,1.2-0.6c0.2,0,0.4-0.2,0.6-0.2h1.2
		c0,0,0.2,0,0.2,0.2s0,0.2-0.2,0.2s-0.4,0-0.6,0.2c-0.2,0.2-0.4,0.2-0.6,0.2c-0.2,0.2-0.4,0.2-0.6,0.4c-0.2,0.2-0.4,0.2-0.4,0.4
		C182.6,48.4,182.2,49,182,49.2L182,49.2z M184,44.2c0.2,0,0.4,0.2,0.6,0.4v0.2h-0.8c-0.4,0-0.8,0-1,0.2s-0.4,0.6-0.4,1
		c0,0.2,0,0.4-0.2,0.6v0.6c-0.2,0.2-0.6,0.2-0.8,0.2s-0.2-0.2-0.2-0.4v-0.6c0.2-0.6,0.4-1.4,1-1.8c0.4-0.2,0.8-0.2,1-0.4
		C183.2,44.2,184,44.2,184,44.2z M178.8,39.6c0.4,0,0.6,0.2,0.8,0.4s0.4,0.4,0.6,0.8c0.2,0.2,0.4,0.4,0.6,0.8
		c0.2,0.2,0.4,0.6,0.6,0.8c0.2,0.2,0.4,0.6,0.6,0.8V44c0,0.2-0.6,0.2-0.8,0.4c0-0.2-0.2-0.4-0.2-0.6c-0.2-0.2-0.2-0.4-0.4-0.6
		c-0.2-0.4-0.6-0.8-1-1.2s-0.6-0.8-1-1.2s-0.8-0.6-1.2-1C178.2,39.6,178.4,39.6,178.8,39.6L178.8,39.6z M196.2,54.4
		c-0.2,0.4-0.4,1-0.6,1.4c-0.4,0.4-0.6,0.6-1.2,0.8c-1,0.4-2,0.8-3.2,0.6c-0.6,0-1.2-0.2-1.6-0.6c-0.2-0.2-0.4-0.2-0.6-0.4
		c-0.2-0.2-0.4-0.4-0.6-0.4c0,0.2,0,0.6-0.2,0.8c0.2,0,0.4,0,0.4,0.2s-0.2,0.4-0.2,0.6c-0.2,0.4-0.4,0.8-0.6,1
		c-0.4,0.6-1.2,1.2-2,1.4s-1.8,0-2.6-0.4c-0.4-0.2-0.6-0.4-0.8-0.6c-0.2-0.4-0.4-0.6-0.6-1c-0.4,0.8-0.8,1.6-1.4,2.2
		c-0.6,0.6-1.2,1-2,1.4s-1.8,0.6-2.6,0.4c-0.2,0-0.4-0.2-0.6-0.2c-0.2-0.2-0.4-0.2-0.6-0.4c-0.4-0.2-0.6-0.6-0.8-1
		c-0.4-0.8-0.4-1.8-0.4-2.6c0-0.4,0.2-0.8,0.4-1.2c0-0.2,0.2-0.4,0.2-0.6c0-0.2,0.2-0.4,0.2-0.6V55H174l-0.2-0.2
		c-0.2-0.2-0.4-0.2-0.6-0.4c-0.4-0.2-0.8-0.4-1-0.6c-0.6-0.4-1.2-1.2-1.4-1.8c-0.2-0.4-0.2-1,0-1.4c0-0.2,0-0.4,0.2-0.6
		c0-0.2,0.2-0.4,0.4-0.6c0.2-0.4,0.6-0.6,1-0.8c0.2-0.2,0.4-0.2,0.6-0.2c0.2,0,0.2,0,0.4-0.2c0,0,0.4,0,0.2-0.2c0.2,0,0.4,0,0.6-0.2
		h1.8c0.4,0,0.8,0.2,1,0.2c0.4,0,0.8,0.2,1.2,0.2s0.8,0.2,1,0.2c0.4,0.2,0.8,0.2,1,0.4c0.4,0.2,0.6,0.4,1,0.4
		c0.2,0.2,0.4,0.4,0.8,0.6c0.2,0,0.2,0.2,0.2,0.4v0.6c-0.2,0.4-0.2,0.8-0.2,1.2c0.6-0.2,1-0.6,1.6-0.8s1.2-0.4,1.8-0.4l-0.2,0.2
		c0,0,0,0.2-0.2,0.2c-0.2,0.2-0.4,0.4-0.8,0.4c0.4,0,0.6-0.2,1,0c0.2,0,0.2,0,0.2,0.2v0.4c-0.4,0.4-0.8,0.4-1.2,0.6
		c-0.6,0.2-1.2,0.4-1.8,0.8c-0.2,0-0.2,0.2-0.2,0.2c0,0.2,0,0.6,0.2,0.8c1.4-1,3.2-1.4,5-1.2c-0.2-0.6-0.2-1.2-0.4-1.8
		s-0.4-1-0.6-1.6c0-0.2-0.2-0.2-0.4-0.4s0.4-0.4,0.4-0.4c0.6,0,0.8,0.4,1,0.8c0.2,0.6,0.6,1,0.8,1.6s0.2,1.2,0.2,1.8v0.8
		c0,0.2,0.2,0.2,0.2,0.2l0.4,0.4c0.4,0.4,1,0.8,1.4,1c1,0.4,2.2,0.8,3.2,0.2c1-0.4,1.4-1.6,1.8-2.4c0.2-0.6,0.2-1.2,0.2-1.6
		c0-0.4-0.2-1-0.6-1.4c-0.2-0.2-0.4-0.2-0.4-0.4c-0.2,0-0.2-0.2-0.4-0.2c0,0-0.2-0.2-0.4-0.2s-0.2,0.2-0.2,0.2
		c-0.2,0-0.2,0.2-0.4,0.2c-0.2,0.2-0.4,0.4-0.8,0.6c-0.6,0.4-1.2,0.6-1.8,0.8c-0.2,0-0.6,0.2-0.8,0.2s-0.4,0.2-0.6,0H189l0.2-0.2
		c0.2-0.2,0.6-0.4,0.8-0.6c0.4-0.2,0.6-0.4,1-0.6c0.6-0.4,1-0.8,1.6-1.2c-0.6-0.2-1.4-0.2-2.2,0h-0.6c-0.2,0-0.2,0.2-0.4,0.2
		s-0.8-0.2-0.4-0.4c0.2,0,0.2,0,0.4-0.2c0.2,0,0.4-0.2,0.6-0.2h2.8c0.2,0,0.2-0.2,0.4-0.4c0.4-0.6,0.8-1.2,1-1.8
		c0.2-0.8,0.2-1.6,0-2.2c-0.2-0.6-0.4-1.4-1-1.6c-0.8-0.2-1.4-0.2-2.2,0c-0.6,0.2-1.4,0.8-1.8,1.2c-0.2,0.2-0.6,0.4-0.8,0.8
		l-0.8,0.8c-0.2,0.2-0.4,0.6-0.6,1c-0.2,0.4-0.2,0.6-0.4,1s-0.4,0.6-0.6,0.4c-0.2,0-0.2-0.2-0.2-0.4V47c0-0.2,0-0.2,0.2-0.4
		c0-0.2,0.2-0.2,0.2-0.4c0.2-0.2,0.2-0.6,0.4-0.8c0.4-0.6,0.8-1.2,1.4-1.6c0.6-0.4,1.2-1,1.8-1.4c0.4-0.2,0.6-0.4,1-0.4
		c0.2,0,0.2-0.2,0.4-0.2s0.4,0,0.6-0.2c0.6-0.2,1.4,0,2,0.4s1,1.2,1.2,1.8c0.6,1.4,0.6,3-0.2,4.2c-0.2,0.4-0.4,0.6-0.8,1
		c0.4,0.2,0.8,0.4,1.2,0.8c0.4,0.4,0.6,0.8,0.8,1.2s0.2,1,0.2,1.4C196.6,53.4,196.4,53.8,196.2,54.4L196.2,54.4z"/>
</g>
</svg>
