<svg version="1.2" baseProfile="tiny" xmlns="http://www.w3.org/2000/svg" width="240" height="55.8" viewBox="0 0 240 55.8" overflow="scroll"><path fill="#333" d="M15.6 39c-8.7 0-14.3 3.7-14.3 7.2 0 1.3 1.4 1.8 2.9 1.8 3 0 7-2.6 9-5.4 1.2-1.6 1-2 1.3-2 .1.7-2.6 7.7-10.1 7.7-1.7 0-3.5-.7-3.5-2.1 0-2.8 3-5 6.1-6.2 3.1-1.2 7.3-1.7 16.1-1.7 5.5 0 6.2-.4 6.5-.4.1.4-1.6 1.6-4 1.6-3.6 0-8.4-.5-10-.5z"/><path fill="#333" d="M4.5 55.3c4.7 0 7-3.2 11.4-9.3 2.8-3.9 6.6-5.9 7.2-5.9.1.3-2.3 1-4.4 4.7-2.5 4.4-7.8 10.8-14.3 10.8-2.6 0-4.4-.8-4.4-2.2 0-.6.4-1.1 1.3-1.1.7 0 1.2.4 1.2.9 0 .6-.4.8-.4 1.2-.1.5 1.1.9 2.4.9zm29.8-2.1c-1.9 1.5-3.6 2-4.4 2-1 0-1.3-.3-1.3-1.3 0-.3.1-.5.1-.8 1.9-.3 6.5-1.4 6.5-3.3 0-.7-.6-1.2-1.6-1.2-1.7 0-3.7 1-5.4 2.4-.3.2-1.2 1-.9 1.2 0 .1-.1.3-.1.7 0 .3 0 .5.1.8-1.3 1-2.1 1.5-3.4 1.2 0-1.1 3.5-3.6 3.5-5 0-.6-.3-1.3-1.3-1.3-1.1 0-3.4 1.6-6.5 4.3 2.2-3.1 8-10.7 9.2-12.3l-1.9.2-3.4 4.6c-2.8 3.8-6.5 6.5-6.4 6.9.1 0 .1-.1 1.5-1.3 1.1-1 1.6-1.5 2.5-2.2-1.8 2.1-3.5 4.3-5.3 6.8l2-.1c.9-1.4 6.6-6.5 8.6-6.1 0 1-3.5 2.7-3.5 4.9 0 1.1.6 1.4 1.3 1.4.6 0 1.5-.2 3.2-1.5.3.9 1.1 1.5 2.3 1.5 1.5 0 2.7-.5 4.3-1.6.9-.7 2.2-1.8 2-2.1-.1-.3-.4.2-1.7 1.2zM29.2 52c.9-1.4 3-3.2 4.4-3.2.4 0 .6.2.6.5 0 1.8-3.3 3.2-5.4 3.4.6-.5 1-.9.4-.7zm210.2 2.1c-.3.1-.9.3-1.7.3-1.8 0-1.8-.9-1.8-2.2 0-1.5 0-2.6-1-3.6-1.7-1.7-5.5-2-8.2-2.3 2.4-.1 5.6-.3 7.7-1.1 2.5-1 2.6-2.4 2.6-2.9 0-1.7-1.4-3-4.1-3.6-2.2-.5-4.8-.5-8.4-.5h-16.8v.8h3.1v15.6h-3.1v.8h15.9v-.8h-3v-8c3.1 0 3.9 0 4.8.6.8.6.8 1.2.9 2.5v1c0 1.2 0 3 2.2 4.1 1.3.6 3.5.9 5.4.9 3.1 0 5.3-.7 6.3-1.1l-.8-.5zm-26.2.8c-.4 0-.7-.3-.7-.7V39.8c0-.4.3-.7.7-.7.4 0 .7.3.7.7v14.4c0 .3-.3.7-.7.7zm16.9-12.8c0 1.9-1.6 3.3-3 3.3 2.4-.4 2.3-5.5 0-6.1 1-.1 3 1.2 3 2.8zm-7.8 3.9h-1.7v-6.8c3.7 0 4.5 0 5.4.4.7.3 1.4 1 1.4 3.1-.1 3.3-2.6 3.3-5.1 3.3zm4.4.9c1-.1 2.3 1.3 2.3 3.8 0 3 .6 3.9.6 3.9-3.1-.8-.7-7-2.9-7.7zM47.4 39.8v14.3c0 .4.3.7.7.7.4 0 .7-.3.7-.7V39.8c0-.4-.3-.7-.7-.7-.4 0-.7.3-.7.7z"/><path fill="#333" d="M66.7 46.7c-1.4-.2-2.8-.3-4.2-.4 1.2 0 4.4-.1 6.7-1.2 1.8-.8 2.1-1.9 2.1-2.6 0-1.7-1.6-3.5-6.5-3.9-1.5-.1-2.9-.1-5.5-.1h-16v.8h3.1v15.6h-3.1v.8h12.8c4.9 0 9.6 0 12.7-1 2.6-.8 4-2.2 4-3.8-.1-2-1.9-3.5-6.1-4.2zm-2.2-4.6c0 1.9-1.8 3.6-3 3.3 2.4-.4 2.3-5.5 0-6.1 1-.1 3 1.2 3 2.8zm-8.4-2.9c2.7 0 3.2 0 4 .2 1.4.4 1.8 1 1.8 3.1 0 3.1-1.3 3.5-5 3.5h-.8v-6.8zm0 15.5v-8c3.3 0 6.3-.1 6.3 3.8 0 4.1-2 4.2-6.3 4.2zm5.7-.3c2.4-.4 2.3-6.8 0-7.5 1-.1 3.7 1 3.7 3.5.1 3-2.5 4.3-3.7 4zm49.4.3L99.5 38.4H96l-9.9 14.2c-1.1 1.5-1.4 1.8-2.7 2-.5.1-1.4.1-2.3.1v.8H90v-.8h-2c-.5 0-1.1-.1-1.1-.5 0-.3.6-1.2.9-1.5l1.3-1.8H98l2.8 3.9h-3.3v.8h16.4v-.8h-2.7zm-21.7-4.6l3.9-5.6 4 5.6h-7.9zm13.6 4.6c-.2 0-.4-.1-.6-.3l-8-11.5c0-.4.3-.7.7-.7.3 0 .5.2.6.4l7.9 11.4c.1.4-.2.7-.6.7zm51.3 0l-10.5-11.8 3.7-2.1c2.5-1.4 2.7-1.4 3.6-1.6.8-.1 1.6-.1 4-.1v-.8h-12.5v.8h3.6c.3 0 1 0 .6.8l-1.1.7-9.6 5.6v-7.1h3v-.8h-15.8v.8h3.1v15.6h-3.1v.8h15.8v-.8h-3v-8.4l7.4 8.4h-2.8v.8h16.7v-.8h-3.1zm-25.8.2c-.4 0-.7-.3-.7-.7V39.8c0-.4.3-.7.7-.7.4 0 .7.3.7.7v14.4c0 .3-.3.7-.7.7zm16.7-.8c-.2 0-.4-.1-.5-.2l-6.4-7.2c0-.4.3-.7.7-.7.2 0 .4.1.5.2l6.4 7.2c0 .4-.3.7-.7.7zm48-4.3c-.5 1.1-1.1 2.7-3.1 3.8-1.8 1-3.7 1.1-6.7 1.1h-4v-7.5c1.9 0 2.9-.1 3.9.2 2 .5 2.7 1.7 2.8 3h1.4v-7h-1.4c0 1.4-.9 2.1-1.5 2.4-1.1.6-2.3.7-3.7.7h-1.5v-7.3h2.7c2.2 0 5 0 7.2 1 1.5.6 2.4 1.6 2.8 2.6h1.3v-4.4h-26.7v.8h3v15.6h-3v.8h27.8v-5.7h-1.3zm-20.7 4.3c0 .4-.3.7-.7.7-.4 0-.7-.3-.7-.7V39.7c0-.4.3-.7.7-.7.4 0 .7.3.7.7v14.4zm38.3-33.3h2c0 2.1.1 3.3.2 3.6.1.4.6.8 1.3 1.4.8.6 1.7 1 2.9 1.4 1.2.4 2.4.5 3.7.5 2.2 0 3.9-.5 5.2-1.6 1.3-1 1.9-2.3 1.9-3.9 0-1.4-.4-2.5-1.3-3.3-.9-.8-2.5-1.3-5-1.6-3.6-.5-6-1-7.3-1.5-1.3-.6-2.2-1.4-3-2.5-.7-1.1-1.1-2.4-1.1-4 0-2.6 1-4.8 3-6.6 2-1.8 5.3-2.7 9.7-2.7 1.7 0 3.3.1 4.6.4 1.4.2 2.7.6 4.1 1.2l.2.5c-.2.9-.4 1.7-.5 2.4-.1.7-.2 1.9-.3 3.7h-2c-.1-2.1-.2-3.3-.3-3.6-.3-.5-1-.9-2.2-1.4-1.2-.5-2.5-.8-4.1-.8-2.1 0-3.7.5-4.9 1.4-1.1.9-1.7 2.1-1.7 3.6 0 .9.2 1.7.7 2.3.5.7 1.1 1.1 2 1.5.9.3 2.7.7 5.5 1.1 2.5.4 4.3.7 5.2 1 1.5.5 2.6 1.4 3.4 2.5.8 1.1 1.1 2.5 1.1 4.2 0 2.9-1.2 5.4-3.7 7.4s-5.9 2.9-10.2 2.9c-1.9 0-3.6-.2-5.2-.5s-3.2-.9-4.8-1.6c.3-1 .5-1.9.6-2.6.2-1.4.3-2.9.3-4.8zm-202 8.9v-1.8c.9 0 1.8-.1 2.7-.2.4-.1.8-.2.9-.3.2-.2.3-.5.4-.9.1-.6.2-2.8.3-6.6 0-2.7.1-5.4.1-8.2 0-5.5 0-8.3-.1-8.4 0-.1-.6-.2-1.6-.2-2.1 0-4 .1-5.5.2-.8 0-1.3 0-1.5.1-.3.5-.4 1.8-.6 4H2C2 4.8 2 2.5 1.8.6c5.1 0 9.7.1 14.3.1 4.5 0 9.6-.1 15.3-.3 0 2.2-.2 4.5-.4 7h-1.9c-.1-2.3-.3-3.6-.4-3.8-.1-.2-.4-.3-.7-.3-1.2-.2-3.7-.3-7.3-.3-.3 0-.5 0-.5.1-.2.2-.2.6-.2 1.2l-.1 14c0 4.1 0 6.6.1 7.5.1.9.3 1.5.5 1.7.2.1 1.4.3 3.6.4v1.8c-2.3-.1-4.6-.1-7.2-.2-3.3 0-6 0-8 .2zm27.7 0v-1.8c2-.1 3.1-.2 3.4-.4.3-.2.5-.5.5-1 .2-.8.2-2.7.2-5.8V9.3c0-3.8-.1-5.9-.2-6.3-.7-.7-1.9-.8-3.9-.9V.4c3.1.1 5.5.1 7.3.1 2.8 0 5.4 0 7.8-.1v1.8c-1.9.1-3 .2-3.3.4-.6.6-.7 1.4-.8 2.8-.1 2-.1 4-.1 6.1v1.7c1.6.1 4.1.1 7.6.1 3.1 0 5.3 0 6.8-.1 0-4.5 0-7.5-.1-9-.1-.8-.2-1.3-.5-1.5-.4-.3-1.5-.4-3.6-.5V.4c3.8.1 6.4.1 7.7.1 2.3 0 4.7 0 7.3-.1v1.8c-2 .1-3.1.2-3.4.4-.5.7-.6 1.8-.7 3.8-.1 3-.2 5.5-.2 7.4l.1 9.5c0 2.1.1 3.4.2 3.7.1.3.3.6.5.7.2.1 1.4.3 3.4.4v1.8l-2.6-.1c-1.9-.1-3.4-.1-4.5-.1-2.3 0-4.9 0-8 .2v-1.8c2-.1 3.2-.2 3.5-.4.3-.2.5-.8.5-1.7.1-1.6.2-4.9.2-10-1.7-.1-3.6-.1-5.7-.1-3.3 0-6.2 0-8.7.1v1.4c0 3.6.1 6.4.2 8.2.1 1.2.3 1.9.6 2.2.3.2 1.5.4 3.5.5v1.8l-2.6-.5c-1.7-.1-3.2-.1-4.6-.1l-7.8.2zm83.5 0v-1.8l1.4-.1c1.1-.1 1.8-.2 2.1-.5.3-.3.5-1.3.5-3 .1-3.4.2-7.1.2-11.2V5.8c0-1.6-.1-2.6-.3-3-.1-.2-.3-.3-.5-.4-.2-.1-1.3-.2-3.3-.4V.4c1.8 0 3.7.1 5.4.1 2.1 0 4.1 0 6-.1.8 1.8 1.7 3.5 2.6 5.3.6 1.2 3.4 6.5 8.3 15.7 5.2-9.5 8.8-16.5 10.9-21 1.8.1 3.6.1 5.2.1 1.9 0 3.8 0 5.6-.1v1.8c-2 .1-3.1.3-3.4.5-.3.2-.4.8-.5 1.9-.1 1.8-.2 5.1-.2 10 0 2.5 0 5.1.1 7.8.1 2.8.2 4.3.3 4.7.7.6 1.7.7 3.7.9v1.8c-2.5-.1-4.7-.2-6.6-.2-2 0-4.6.1-8 .2V28h1.3c1.1 0 1.7-.2 2-.4.3-.2.5-.8.5-1.8.1-1 .1-3.3.1-6.9V6.1c-2.4 4.3-5.4 9.9-9 16.9-1.5 2.9-2.7 5.2-3.5 7h-1.6c-1.1-2.4-2.7-5.4-4.6-9.1l-7.9-14.8V9c0 7.8 0 13.2.1 16.2 0 1.2.2 1.9.5 2.2.3.3 1.4.5 3.4.5v1.8c-1.6-.1-3.1-.2-4.7-.2-2.2 0-4.2.1-6.1.2zm81.4-2.4c-.3-.3-1.1-1.9-2.5-4.8L188.6.2h-3.4l-8.1 18.1c-1.5 3.2-2.6 5.7-3.6 7.5-.5.9-.9 1.4-1.1 1.6-.3.2-1.2.3-2.7.4v1.9c1.3-.1 2.9-.2 5.1-.2 2.2 0 4.1 0 5.6.2v-1.8c-1.9-.1-2.9-.3-3.2-.4-.3-.1-.4-.4-.4-.7 0-.2 0-.5.1-.8.4-1.3.7-2.3 1-2.9l1-2.4h11.9l1.5 3.6c.6 1.5 1 2.4 1 2.7 0 .3-.1.5-.4.6-.3.1-1.3.2-3.1.3v1.8c2.4-.1 4.9-.2 7.5-.2 2.2 0 4.6 0 7.1.2v-1.8c-1.7-.1-2.6-.3-2.9-.6zm-16.8-8.9c-1.7 0-3.3 0-4.7-.1l4.8-10.7 4.9 10.7c-1.6 0-3.3.1-5 .1zM83 12.8c-.2-.3-.7-.3-1.1-.6-.4-.4-.5-.8-.7-.9-.3-.1-3.4-.9-6-1.3 2.6.3 4.6.7 6.1 1.2.4.1.8.1 1.2.3.3.2.3.9.5 1.3z"/><path fill="#333" d="M82.5 11.5c.4.2.3.9.5 1.3-.2-.3-.7-.3-1.1-.6.7.2.9 0 .6-.7z"/><path fill="#333" d="M82.5 11.5c.4.2.3.9.5 1.3-.2-.3-.7-.3-1.1-.6"/><path fill="#333" d="M80.6 12.3c.5.1.5-.2 1-.3.4-.1 1 .4 1.3.3-1 .9-1.8.4-2 .4-.1-.1-.3-.2-.4-.2-.7-.2-4.6-.9-6-1.4 1.4.3 3.2.7 6.1 1.2zm2.7 0c-.3-.3-.7-.3-1.1-.7-.4-.4-.5-.7-.7-.9-.3-.1-3.4-.9-6-1.3 2.6.3 4.6.7 6.1 1.2.4.1.8.1 1.2.3.3.3.3 1 .5 1.4z"/><path fill="#333" d="M84 12.3c-.4.2-.7-.1-1.3.1-.5.2-.7.5-1 .5-.3 0-3.4-.7-5.9-1.5 2.5.9 4.4 1.4 6 1.6.4.1.7.3 1.2.2.4 0 .6-.6 1-.9z"/><path fill="#333" d="M83.4 11.6c.3.8 1.2.6 1.1 1.1-.2-.4.1-.8-.2-1.3-.3-.4-1-.6-1.3-.8-1-.4-4.4-1.2-6.3-1.6 2.8.7 4.7 1.1 6.2 1.8.3.1.4.5.5.8z"/><path fill-rule="evenodd" fill="#333" d="M112.1 6.6c-1.3-2.1-3.2-3.7-5.7-4.8C104 .6 100.8 0 96.9 0c-4 0-7.4.6-10 1.8-2.6 1.2-4.6 2.9-6 5.2-.4.7-.8 1.4-1.1 2.2-.5-.1-1-.2-1.5-.4.5.1 1 .3 1.5.4-.1.2-.2.4-.2.6-.2 0-.4-.1-.6-.1.2 0 .4.1.6.1-.2.7-.4 1.5-.6 2.3-.2-.1-.4-.1-.6-.2.2.1.4.1.6.2-.1.3-.1.7-.1 1-.5-.1-1.1-.2-1.8-.3.5.1 1.1.2 1.8.3-.1.6-.1 1.3-.1 1.9 0 4.6 1.5 8.2 4.5 10.9 3 2.6 7.3 3.9 13 3.9 3.7 0 6.9-.6 9.6-1.9 2.7-1.3 4.7-3.1 6.2-5.5s2.2-5.2 2.2-8.4c-.1-2.8-.8-5.4-2.2-7.4zM88.4 5.2c1.8-2 4.4-3 7.7-3 3.5 0 6.2 1 7.8 2.9 2.1 2.4 3.1 5.8 3.1 10.2 0 2.4-.3 4.5-.9 6.2-.9-.7-1.8-1.6-2.8-2.5-.5-1-1-2.6-2-3.8C98.8 12 99.9 9 97 6.1c1.6 2-.3 3.9.6 6.2.9 2.5 1.8 3.4 3 4.3-1.5-1.2-3-2.1-4.2-1.9-.1 0-.1-.2-.2-.3 0-.1-.1 0-.2.1-.3-.4-.2-.6-.9-1.2-.1-.3-.4-.3-.6-.3l-.1-.1c-.2-.2-.5-.2-.8-.2-1.8-1.1-2.8-2.2-5.3-3 1.6.5 3.4 1.8 5 2.9-.1 0-.2 0-.3-.1-.8-.3-1.6-.7-4.5-1.7 0 0-.1 0-.1-.1 0 0 .1 0 .1.1-.7-.2-1.4-.5-2.3-.8 0-.1.1-.3.1-.4.8.3 1.5.8 2.1 1.2-.6-.4-1.2-.8-2.1-1.2.4-1.8 1.1-3.3 2.1-4.4zm-2.7 9.2c.4.1.8.1 1.1.1h.8c.1 0 .3.1.4.1.2 0 .4.1.6.1h-2.8s-.1-.2-.1-.3zm.5-4.5c.7.3 1.6.6 2.5 1 .1.1.3.2.4.3-.1-.1-.3-.2-.4-.3 1.9.7 3.8 1.5 4.1 1.7.4.2.4.4.4.6-.1 0-.2 0-.3-.1 0-.1-.1-.1-.1-.2-.3-.5-1-.7-1.2-.8-.4-.2-1.1-.4-2-.6-.2-.1-.4-.2-.5-.3.2.1.3.2.4.3-.7-.2-1.5-.4-2.3-.6-.4-.2-.8-.3-1.2-.5.1-.2.2-.4.2-.5zm9.6 5.2zm-8.2-3.5c-.3-.3-.7-.3-1.1-.5-.2-.1-.3-.1-.5-.2v-.1c.6.2 1.2.4 1.7.6.2.1.2.4.2.6h-.1c0-.1-.1-.3-.2-.4zm-1.8 2.1l.2-.2h.1c-.1.2-.2.3-.3.4v-.2zm5.9-1.2c-.4-.2-.8-.2-1.1-.5-.2-.1-.5-.3-.7-.4.6.2 1.2.4 1.7.6.1.1.2.2.1.3.1 0 .1 0 0 0zm-1.2-.4c.1.1.2.3.2.5h-.2c0-.1-.1-.3-.2-.3-.3-.3-.8-.3-1.1-.5-.6-.3-1.2-.6-1.7-.8.9.2 1.6.4 2.3.6.3.2.6.4.7.5zm-4.1 2.2c.1 0 .2.1.3.1h-.6c.1-.1.2-.1.3-.1zm.2-.1c.1 0 .2-.1.3-.1l.3-.3c-.1.2-.2.4-.4.5 0 0-.1 0-.2-.1zm1.6.1c.1-.1.2-.1.2-.2h.1c-.3.1-.4.3-.6.3.1 0 .2 0 .3-.1zm1.5.1l-.1.1.1-.1zm-2.9-3.6c-.3-.1-.5-.1-.7-.2v-.1c.2 0 .5.2.7.3zm-.7-.2c.3.1.6.2.9.2 1.1.5 2 1 2.1 1.1.1.1.2.3.2.4h-.2c0-.1-.1-.1-.1-.2-.3-.5-1-.7-1.2-.8-.3-.1-1-.3-1.7-.5-.1-.1-.1-.2 0-.2zm.2.6c.2.1.3.4.4.7h-.1c-.2-.3-.5-.5-.7-.6v-.2c.3 0 .4.1.4.1zm2.9 3.7c.5 0 1 .4 1.4.2.2-.1.3-.2.4-.3h.1c-.1.2-.2.3-.4.4-.3.1-2.7.1-4.9-.1v-.3c2 .1 2.7.1 3.4.1zm4.4.5h.2c-.1.1-.2.2-.4.2l.2-.2zm2.3-.6c0-.1-.1-.2-.1-.3v-.1c.1 0 .2.1.2.1 0 .1-.1.2-.1.3zm8.5 9.9c-1.8 2.1-4.3 3.1-7.3 3.1-2.5 0-4.5-.5-6-1.4-1.5-.9-2.8-2.4-3.8-4.5-.8-1.7-1.3-3.6-1.4-5.9h.7c-.2 0-.5 0-.7-.1v-1c1.8.2 2.9.3 4.9.2.4-.1.8.1 1.2 0 .2 0 .3-.1.4-.3h.1c-.2.2-.3.4-.5.5-.1 0-.6.1-1.3.2-1.6 0-3.2-.2-4.4-.4 1.5.2 2.8.4 4.1.4-1 .2-2.4.3-3.6.3 1.6.1 2.5-.1 3.7-.2 1 0 2 0 3.1-.1.3 0 .6.3 1.1.1.6-.2.8-.4 1-.6l.3-.2s.1 0 .4-.1c.9-.2 2 .2 3.2 1-1.2-.4-2.2-.3-2.9 1-1.5 3-3.5 3.6-5 3.8 3.6 1.6 5.9-1.1 6.6-2.7.6-1.5 2.2-1.2 3.7-.3 1.4 1.3 2.9 2.7 4.2 3.7-.6 1.7-1.1 2.7-1.8 3.5zm-11.9-8.9c-.6.1-1.2.1-1.8.1.3 0 .7-.1 1.1-.1.3-.1.5 0 .7 0z"/><path fill-rule="evenodd" fill="#333" d="M84.4 12.2c-.4.8-.8.3-1.3-.2.6-.4 1.4-.8 1.3.2zM83 12c-.4.7-.7.3-1.2-.2.6-.3 1.3-.9 1.2.2z"/></svg>